<mxfile host="app.diagrams.net" modified="2024-04-10T08:05:42.983Z" agent="Mozilla/5.0 (Windows NT 10.0; Win64; x64) AppleWebKit/537.36 (KHTML, like Gecko) Chrome/121.0.0.0 Safari/537.36 OPR/107.0.0.0" etag="yMoMa3sKg5TxnvkEve2C" version="24.2.3" type="device">
  <diagram name="Pagina-1" id="uOmwQgiwoXx-g1m-2QkE">
    <mxGraphModel dx="1009" dy="542" grid="1" gridSize="10" guides="1" tooltips="1" connect="1" arrows="1" fold="1" page="1" pageScale="1" pageWidth="827" pageHeight="1169" math="0" shadow="0">
      <root>
        <mxCell id="0" />
        <mxCell id="1" parent="0" />
        <mxCell id="56YxGkQyjUMMuIw3pBRw-9" value="" style="edgeStyle=orthogonalEdgeStyle;rounded=0;orthogonalLoop=1;jettySize=auto;html=1;" parent="1" source="56YxGkQyjUMMuIw3pBRw-6" target="56YxGkQyjUMMuIw3pBRw-8" edge="1">
          <mxGeometry relative="1" as="geometry" />
        </mxCell>
        <mxCell id="56YxGkQyjUMMuIw3pBRw-6" value="start" style="rounded=1;whiteSpace=wrap;html=1;" parent="1" vertex="1">
          <mxGeometry x="414" y="10" width="120" height="60" as="geometry" />
        </mxCell>
        <mxCell id="56YxGkQyjUMMuIw3pBRw-11" value="" style="edgeStyle=orthogonalEdgeStyle;rounded=0;orthogonalLoop=1;jettySize=auto;html=1;" parent="1" source="56YxGkQyjUMMuIw3pBRw-8" target="56YxGkQyjUMMuIw3pBRw-10" edge="1">
          <mxGeometry relative="1" as="geometry" />
        </mxCell>
        <mxCell id="56YxGkQyjUMMuIw3pBRw-8" value="vraag naam" style="shape=parallelogram;perimeter=parallelogramPerimeter;whiteSpace=wrap;html=1;fixedSize=1;" parent="1" vertex="1">
          <mxGeometry x="414" y="140" width="120" height="60" as="geometry" />
        </mxCell>
        <mxCell id="56YxGkQyjUMMuIw3pBRw-12" style="edgeStyle=orthogonalEdgeStyle;rounded=0;orthogonalLoop=1;jettySize=auto;html=1;entryX=0;entryY=0.5;entryDx=0;entryDy=0;" parent="1" source="56YxGkQyjUMMuIw3pBRw-10" target="56YxGkQyjUMMuIw3pBRw-8" edge="1">
          <mxGeometry relative="1" as="geometry">
            <Array as="points">
              <mxPoint x="380" y="300" />
              <mxPoint x="380" y="170" />
            </Array>
          </mxGeometry>
        </mxCell>
        <mxCell id="56YxGkQyjUMMuIw3pBRw-15" value="" style="edgeStyle=orthogonalEdgeStyle;rounded=0;orthogonalLoop=1;jettySize=auto;html=1;" parent="1" source="56YxGkQyjUMMuIw3pBRw-10" target="56YxGkQyjUMMuIw3pBRw-14" edge="1">
          <mxGeometry relative="1" as="geometry" />
        </mxCell>
        <mxCell id="56YxGkQyjUMMuIw3pBRw-10" value="namen &amp;lt; 3" style="rhombus;whiteSpace=wrap;html=1;" parent="1" vertex="1">
          <mxGeometry x="434" y="260" width="80" height="80" as="geometry" />
        </mxCell>
        <mxCell id="56YxGkQyjUMMuIw3pBRw-13" value="true" style="text;strokeColor=none;align=center;fillColor=none;html=1;verticalAlign=middle;whiteSpace=wrap;rounded=0;" parent="1" vertex="1">
          <mxGeometry x="384" y="280" width="60" height="30" as="geometry" />
        </mxCell>
        <mxCell id="56YxGkQyjUMMuIw3pBRw-16" style="edgeStyle=orthogonalEdgeStyle;rounded=0;orthogonalLoop=1;jettySize=auto;html=1;entryX=1;entryY=0.5;entryDx=0;entryDy=0;" parent="1" source="56YxGkQyjUMMuIw3pBRw-14" target="56YxGkQyjUMMuIw3pBRw-8" edge="1">
          <mxGeometry relative="1" as="geometry">
            <Array as="points">
              <mxPoint x="590" y="420" />
              <mxPoint x="590" y="170" />
            </Array>
          </mxGeometry>
        </mxCell>
        <mxCell id="g_yjo5FO4cWFZM89rj9h-5" value="" style="edgeStyle=orthogonalEdgeStyle;rounded=0;orthogonalLoop=1;jettySize=auto;html=1;" edge="1" parent="1" source="56YxGkQyjUMMuIw3pBRw-14" target="g_yjo5FO4cWFZM89rj9h-4">
          <mxGeometry relative="1" as="geometry" />
        </mxCell>
        <mxCell id="56YxGkQyjUMMuIw3pBRw-14" value="naam toevoegen?" style="rhombus;whiteSpace=wrap;html=1;" parent="1" vertex="1">
          <mxGeometry x="434" y="380" width="80" height="80" as="geometry" />
        </mxCell>
        <mxCell id="56YxGkQyjUMMuIw3pBRw-17" value="ja" style="text;strokeColor=none;align=center;fillColor=none;html=1;verticalAlign=middle;whiteSpace=wrap;rounded=0;" parent="1" vertex="1">
          <mxGeometry x="520" y="390" width="60" height="30" as="geometry" />
        </mxCell>
        <mxCell id="56YxGkQyjUMMuIw3pBRw-18" value="false" style="text;strokeColor=none;align=center;fillColor=none;html=1;verticalAlign=middle;whiteSpace=wrap;rounded=0;" parent="1" vertex="1">
          <mxGeometry x="430" y="340" width="60" height="30" as="geometry" />
        </mxCell>
        <mxCell id="56YxGkQyjUMMuIw3pBRw-21" value="nee" style="text;strokeColor=none;align=center;fillColor=none;html=1;verticalAlign=middle;whiteSpace=wrap;rounded=0;" parent="1" vertex="1">
          <mxGeometry x="460" y="470" width="60" height="30" as="geometry" />
        </mxCell>
        <mxCell id="56YxGkQyjUMMuIw3pBRw-25" value="" style="edgeStyle=orthogonalEdgeStyle;rounded=0;orthogonalLoop=1;jettySize=auto;html=1;" parent="1" source="56YxGkQyjUMMuIw3pBRw-22" target="56YxGkQyjUMMuIw3pBRw-24" edge="1">
          <mxGeometry relative="1" as="geometry" />
        </mxCell>
        <mxCell id="56YxGkQyjUMMuIw3pBRw-22" value="print lootjes" style="rounded=0;whiteSpace=wrap;html=1;" parent="1" vertex="1">
          <mxGeometry x="414" y="1070" width="120" height="60" as="geometry" />
        </mxCell>
        <mxCell id="56YxGkQyjUMMuIw3pBRw-24" value="einde" style="rounded=1;whiteSpace=wrap;html=1;" parent="1" vertex="1">
          <mxGeometry x="414" y="1190" width="120" height="60" as="geometry" />
        </mxCell>
        <mxCell id="g_yjo5FO4cWFZM89rj9h-19" value="" style="edgeStyle=orthogonalEdgeStyle;rounded=0;orthogonalLoop=1;jettySize=auto;html=1;" edge="1" parent="1" source="g_yjo5FO4cWFZM89rj9h-4" target="g_yjo5FO4cWFZM89rj9h-6">
          <mxGeometry relative="1" as="geometry" />
        </mxCell>
        <mxCell id="g_yjo5FO4cWFZM89rj9h-4" value="schud lijst met namen" style="rounded=0;whiteSpace=wrap;html=1;" vertex="1" parent="1">
          <mxGeometry x="414" y="520" width="120" height="60" as="geometry" />
        </mxCell>
        <mxCell id="g_yjo5FO4cWFZM89rj9h-20" value="" style="edgeStyle=orthogonalEdgeStyle;rounded=0;orthogonalLoop=1;jettySize=auto;html=1;" edge="1" parent="1" source="g_yjo5FO4cWFZM89rj9h-6" target="g_yjo5FO4cWFZM89rj9h-9">
          <mxGeometry relative="1" as="geometry" />
        </mxCell>
        <mxCell id="g_yjo5FO4cWFZM89rj9h-6" value="lootjes = {}" style="rounded=0;whiteSpace=wrap;html=1;" vertex="1" parent="1">
          <mxGeometry x="414" y="620" width="120" height="60" as="geometry" />
        </mxCell>
        <mxCell id="g_yjo5FO4cWFZM89rj9h-21" style="edgeStyle=orthogonalEdgeStyle;rounded=0;orthogonalLoop=1;jettySize=auto;html=1;entryX=0.5;entryY=0;entryDx=0;entryDy=0;" edge="1" parent="1" source="g_yjo5FO4cWFZM89rj9h-9" target="g_yjo5FO4cWFZM89rj9h-11">
          <mxGeometry relative="1" as="geometry" />
        </mxCell>
        <mxCell id="g_yjo5FO4cWFZM89rj9h-9" value="for namen:" style="rounded=0;whiteSpace=wrap;html=1;" vertex="1" parent="1">
          <mxGeometry x="414" y="720" width="120" height="60" as="geometry" />
        </mxCell>
        <mxCell id="g_yjo5FO4cWFZM89rj9h-17" style="edgeStyle=orthogonalEdgeStyle;rounded=0;orthogonalLoop=1;jettySize=auto;html=1;entryX=0.5;entryY=0;entryDx=0;entryDy=0;" edge="1" parent="1" source="g_yjo5FO4cWFZM89rj9h-10" target="56YxGkQyjUMMuIw3pBRw-22">
          <mxGeometry relative="1" as="geometry" />
        </mxCell>
        <mxCell id="g_yjo5FO4cWFZM89rj9h-10" value="lootjes[naam] = namen[naam+1]" style="rounded=0;whiteSpace=wrap;html=1;" vertex="1" parent="1">
          <mxGeometry x="414" y="940" width="120" height="60" as="geometry" />
        </mxCell>
        <mxCell id="g_yjo5FO4cWFZM89rj9h-12" value="" style="edgeStyle=orthogonalEdgeStyle;rounded=0;orthogonalLoop=1;jettySize=auto;html=1;" edge="1" parent="1" source="g_yjo5FO4cWFZM89rj9h-11" target="g_yjo5FO4cWFZM89rj9h-10">
          <mxGeometry relative="1" as="geometry" />
        </mxCell>
        <mxCell id="g_yjo5FO4cWFZM89rj9h-16" value="" style="edgeStyle=orthogonalEdgeStyle;rounded=0;orthogonalLoop=1;jettySize=auto;html=1;" edge="1" parent="1" source="g_yjo5FO4cWFZM89rj9h-11" target="g_yjo5FO4cWFZM89rj9h-15">
          <mxGeometry relative="1" as="geometry" />
        </mxCell>
        <mxCell id="g_yjo5FO4cWFZM89rj9h-11" value="laatste naam?" style="rhombus;whiteSpace=wrap;html=1;" vertex="1" parent="1">
          <mxGeometry x="434" y="810" width="80" height="80" as="geometry" />
        </mxCell>
        <mxCell id="g_yjo5FO4cWFZM89rj9h-13" value="nee" style="text;strokeColor=none;align=center;fillColor=none;html=1;verticalAlign=middle;whiteSpace=wrap;rounded=0;" vertex="1" parent="1">
          <mxGeometry x="460" y="890" width="60" height="30" as="geometry" />
        </mxCell>
        <mxCell id="g_yjo5FO4cWFZM89rj9h-14" value="ja" style="text;strokeColor=none;align=center;fillColor=none;html=1;verticalAlign=middle;whiteSpace=wrap;rounded=0;" vertex="1" parent="1">
          <mxGeometry x="374" y="820" width="60" height="30" as="geometry" />
        </mxCell>
        <mxCell id="g_yjo5FO4cWFZM89rj9h-15" value="lootjes[naam] = namen[eerste naam]" style="rounded=0;whiteSpace=wrap;html=1;" vertex="1" parent="1">
          <mxGeometry x="240" y="820" width="120" height="60" as="geometry" />
        </mxCell>
      </root>
    </mxGraphModel>
  </diagram>
</mxfile>
